<?xml version="1.0" encoding="UTF-8"?>
<!--Generator: Apple Native CoreSVG 232.5-->
<!DOCTYPE svg
PUBLIC "-//W3C//DTD SVG 1.1//EN"
       "http://www.w3.org/Graphics/SVG/1.1/DTD/svg11.dtd">
<svg version="1.1" xmlns="http://www.w3.org/2000/svg" xmlns:xlink="http://www.w3.org/1999/xlink" width="3300" height="2200">
 <!--glyph: "", point size: 100.0, font version: "19.0d8e1", template writer version: "128"-->
 <style>.monochrome-0 {-sfsymbols-motion-group:1}
.monochrome-1 {-sfsymbols-motion-group:0;-sfsymbols-always-pulses:true}
.monochrome-2 {-sfsymbols-motion-group:0;-sfsymbols-always-pulses:true}
.monochrome-3 {-sfsymbols-motion-group:0;-sfsymbols-always-pulses:true}

.multicolor-0:tintColor {-sfsymbols-motion-group:1}
.multicolor-1:tintColor {-sfsymbols-motion-group:0;-sfsymbols-always-pulses:true}
.multicolor-2:tintColor {-sfsymbols-motion-group:0;-sfsymbols-always-pulses:true}
.multicolor-3:tintColor {-sfsymbols-motion-group:0;-sfsymbols-always-pulses:true}

.hierarchical-0:secondary {-sfsymbols-motion-group:1}
.hierarchical-1:primary {-sfsymbols-motion-group:0}
.hierarchical-2:primary {-sfsymbols-motion-group:0}
.hierarchical-3:primary {-sfsymbols-motion-group:0}

.SFSymbolsPreviewWireframe {fill:none;opacity:1.0;stroke:black;stroke-width:0.5}
</style>
 <g id="Notes">
  <rect height="2200" id="artboard" style="fill:white;opacity:1" width="3300" x="0" y="0"/>
  <line style="fill:none;stroke:black;opacity:1;stroke-width:0.5;" x1="263" x2="3036" y1="292" y2="292"/>
  <text style="stroke:none;fill:black;font-family:sans-serif;font-size:13;font-weight:bold;" transform="matrix(1 0 0 1 263 322)">Weight/Scale Variations</text>
  <text style="stroke:none;fill:black;font-family:sans-serif;font-size:13;text-anchor:middle;" transform="matrix(1 0 0 1 559.711 322)">Ultralight</text>
  <text style="stroke:none;fill:black;font-family:sans-serif;font-size:13;text-anchor:middle;" transform="matrix(1 0 0 1 856.422 322)">Thin</text>
  <text style="stroke:none;fill:black;font-family:sans-serif;font-size:13;text-anchor:middle;" transform="matrix(1 0 0 1 1153.13 322)">Light</text>
  <text style="stroke:none;fill:black;font-family:sans-serif;font-size:13;text-anchor:middle;" transform="matrix(1 0 0 1 1449.84 322)">Regular</text>
  <text style="stroke:none;fill:black;font-family:sans-serif;font-size:13;text-anchor:middle;" transform="matrix(1 0 0 1 1746.56 322)">Medium</text>
  <text style="stroke:none;fill:black;font-family:sans-serif;font-size:13;text-anchor:middle;" transform="matrix(1 0 0 1 2043.27 322)">Semibold</text>
  <text style="stroke:none;fill:black;font-family:sans-serif;font-size:13;text-anchor:middle;" transform="matrix(1 0 0 1 2339.98 322)">Bold</text>
  <text style="stroke:none;fill:black;font-family:sans-serif;font-size:13;text-anchor:middle;" transform="matrix(1 0 0 1 2636.69 322)">Heavy</text>
  <text style="stroke:none;fill:black;font-family:sans-serif;font-size:13;text-anchor:middle;" transform="matrix(1 0 0 1 2933.4 322)">Black</text>
  <line style="fill:none;stroke:black;opacity:1;stroke-width:0.5;" x1="263" x2="3036" y1="1903" y2="1903"/>
  <g transform="matrix(0.2 0 0 0.2 263 1933)">
   <path d="m46.2402 4.15039c21.5332 0 39.4531-17.8711 39.4531-39.4043s-17.9688-39.4043-39.502-39.4043c-21.4844 0-39.3555 17.8711-39.3555 39.4043s17.9199 39.4043 39.4043 39.4043Zm0-7.42188c-17.7246 0-31.8848-14.209-31.8848-31.9824s14.1113-31.9824 31.8359-31.9824c17.7734 0 32.0312 14.209 32.0312 31.9824s-14.209 31.9824-31.9824 31.9824Zm-17.9688-31.9824c0 2.14844 1.51367 3.61328 3.75977 3.61328h10.498v10.5957c0 2.19727 1.46484 3.71094 3.61328 3.71094 2.24609 0 3.71094-1.51367 3.71094-3.71094v-10.5957h10.5957c2.19727 0 3.71094-1.46484 3.71094-3.61328 0-2.19727-1.51367-3.71094-3.71094-3.71094h-10.5957v-10.5469c0-2.24609-1.46484-3.75977-3.71094-3.75977-2.14844 0-3.61328 1.51367-3.61328 3.75977v10.5469h-10.498c-2.24609 0-3.75977 1.51367-3.75977 3.71094Z"/>
  </g>
  <g transform="matrix(0.2 0 0 0.2 281.506 1933)">
   <path d="m58.5449 14.5508c27.2461 0 49.8047-22.6074 49.8047-49.8047 0-27.2461-22.6074-49.8047-49.8535-49.8047-27.1973 0-49.7559 22.5586-49.7559 49.8047 0 27.1973 22.6074 49.8047 49.8047 49.8047Zm0-8.30078c-23.0469 0-41.4551-18.457-41.4551-41.5039s18.3594-41.5039 41.4062-41.5039 41.5527 18.457 41.5527 41.5039-18.457 41.5039-41.5039 41.5039Zm-22.6562-41.5039c0 2.39258 1.66016 4.00391 4.15039 4.00391h14.3555v14.4043c0 2.44141 1.66016 4.15039 4.05273 4.15039 2.44141 0 4.15039-1.66016 4.15039-4.15039v-14.4043h14.4043c2.44141 0 4.15039-1.61133 4.15039-4.00391 0-2.44141-1.70898-4.15039-4.15039-4.15039h-14.4043v-14.3555c0-2.49023-1.70898-4.19922-4.15039-4.19922-2.39258 0-4.05273 1.70898-4.05273 4.19922v14.3555h-14.3555c-2.49023 0-4.15039 1.70898-4.15039 4.15039Z"/>
  </g>
  <g transform="matrix(0.2 0 0 0.2 304.924 1933)">
   <path d="m74.8535 28.3203c34.8145 0 63.623-28.8086 63.623-63.5742 0-34.8145-28.8574-63.623-63.6719-63.623-34.7656 0-63.5254 28.8086-63.5254 63.623 0 34.7656 28.8086 63.5742 63.5742 63.5742Zm0-9.08203c-30.1758 0-54.4434-24.3164-54.4434-54.4922 0-30.2246 24.2188-54.4922 54.3945-54.4922 30.2246 0 54.541 24.2676 54.541 54.4922 0 30.1758-24.2676 54.4922-54.4922 54.4922Zm-28.8574-54.4922c0 2.58789 1.85547 4.39453 4.58984 4.39453h19.7266v19.7754c0 2.68555 1.85547 4.58984 4.44336 4.58984 2.68555 0 4.54102-1.85547 4.54102-4.58984v-19.7754h19.7754c2.68555 0 4.58984-1.80664 4.58984-4.39453 0-2.73438-1.85547-4.58984-4.58984-4.58984h-19.7754v-19.7266c0-2.73438-1.85547-4.63867-4.54102-4.63867-2.58789 0-4.44336 1.9043-4.44336 4.63867v19.7266h-19.7266c-2.73438 0-4.58984 1.85547-4.58984 4.58984Z"/>
  </g>
  <text style="stroke:none;fill:black;font-family:sans-serif;font-size:13;font-weight:bold;" transform="matrix(1 0 0 1 263 1953)">Design Variations</text>
  <text style="stroke:none;fill:black;font-family:sans-serif;font-size:13;" transform="matrix(1 0 0 1 263 1971)">Symbols are supported in up to nine weights and three scales.</text>
  <text style="stroke:none;fill:black;font-family:sans-serif;font-size:13;" transform="matrix(1 0 0 1 263 1989)">For optimal layout with text and other symbols, vertically align</text>
  <text style="stroke:none;fill:black;font-family:sans-serif;font-size:13;" transform="matrix(1 0 0 1 263 2007)">symbols with the adjacent text.</text>
  <line style="fill:none;stroke:#00AEEF;stroke-width:0.5;opacity:1.0;" x1="776" x2="776" y1="1919" y2="1933"/>
  <g transform="matrix(0.2 0 0 0.2 776 1933)">
   <path d="m16.5527 0.78125c2.58789 0 3.85742-0.976562 4.78516-3.71094l6.29883-17.2363h28.8086l6.29883 17.2363c0.927734 2.73438 2.19727 3.71094 4.73633 3.71094 2.58789 0 4.24805-1.5625 4.24805-4.00391 0-0.830078-0.146484-1.61133-0.537109-2.63672l-22.9004-60.9863c-1.12305-2.97852-3.125-4.49219-6.25-4.49219-3.02734 0-5.07812 1.46484-6.15234 4.44336l-22.9004 61.084c-0.390625 1.02539-0.537109 1.80664-0.537109 2.63672 0 2.44141 1.5625 3.95508 4.10156 3.95508Zm13.4766-28.3691 11.8652-32.8613h0.244141l11.8652 32.8613Z"/>
  </g>
  <line style="fill:none;stroke:#00AEEF;stroke-width:0.5;opacity:1.0;" x1="792.836" x2="792.836" y1="1919" y2="1933"/>
  <text style="stroke:none;fill:black;font-family:sans-serif;font-size:13;font-weight:bold;" transform="matrix(1 0 0 1 776 1953)">Margins</text>
  <text style="stroke:none;fill:black;font-family:sans-serif;font-size:13;" transform="matrix(1 0 0 1 776 1971)">Leading and trailing margins on the left and right side of each symbol</text>
  <text style="stroke:none;fill:black;font-family:sans-serif;font-size:13;" transform="matrix(1 0 0 1 776 1989)">can be adjusted by modifying the x-location of the margin guidelines.</text>
  <text style="stroke:none;fill:black;font-family:sans-serif;font-size:13;" transform="matrix(1 0 0 1 776 2007)">Modifications are automatically applied proportionally to all</text>
  <text style="stroke:none;fill:black;font-family:sans-serif;font-size:13;" transform="matrix(1 0 0 1 776 2025)">scales and weights.</text>
  <g transform="matrix(0.2 0 0 0.2 1289 1933)">
   <path d="m14.209 9.32617 8.49609 8.54492c4.29688 4.3457 9.22852 4.05273 13.8672-1.07422l53.4668-58.9355-4.83398-4.88281-53.0762 58.3984c-1.75781 2.00195-3.41797 2.49023-5.76172 0.146484l-5.85938-5.81055c-2.34375-2.29492-1.80664-4.00391 0.195312-5.81055l57.373-54.0039-4.88281-4.83398-57.959 54.4434c-4.93164 4.58984-5.32227 9.47266-1.02539 13.8184Zm32.0801-90.9668c-2.09961 2.05078-2.24609 4.93164-1.07422 6.88477 1.17188 1.80664 3.4668 2.97852 6.68945 2.14844 7.32422-1.70898 14.9414-2.00195 22.0703 2.68555l-2.92969 7.27539c-1.70898 4.15039-0.830078 7.08008 1.85547 9.81445l11.4746 11.5723c2.44141 2.44141 4.49219 2.53906 7.32422 2.05078l5.32227-0.976562 3.32031 3.36914-0.195312 2.7832c-0.195312 2.49023 0.439453 4.39453 2.88086 6.78711l3.80859 3.71094c2.39258 2.39258 5.46875 2.53906 7.8125 0.195312l14.5508-14.5996c2.34375-2.34375 2.24609-5.32227-0.146484-7.71484l-3.85742-3.80859c-2.39258-2.39258-4.24805-3.17383-6.64062-2.97852l-2.88086 0.244141-3.22266-3.17383 1.2207-5.61523c0.634766-2.83203-0.146484-5.0293-3.07617-7.95898l-10.9863-10.9375c-16.6992-16.6016-38.8672-16.2109-53.3203-1.75781Zm7.4707 1.85547c12.1582-8.88672 28.6133-7.37305 39.7461 3.75977l12.1582 12.0605c1.17188 1.17188 1.36719 2.09961 1.02539 3.80859l-1.61133 7.42188 7.51953 7.42188 4.93164-0.292969c1.26953-0.0488281 1.66016 0.0488281 2.63672 1.02539l2.88086 2.88086-12.207 12.207-2.88086-2.88086c-0.976562-0.976562-1.12305-1.36719-1.07422-2.68555l0.341797-4.88281-7.4707-7.42188-7.61719 1.26953c-1.61133 0.341797-2.34375 0.195312-3.56445-0.976562l-10.0098-10.0098c-1.26953-1.17188-1.41602-2.00195-0.634766-3.85742l4.39453-10.4492c-7.8125-7.27539-17.9688-10.4004-28.125-7.42188-0.78125 0.195312-1.07422-0.439453-0.439453-0.976562Z"/>
  </g>
  <text style="stroke:none;fill:black;font-family:sans-serif;font-size:13;font-weight:bold;" transform="matrix(1 0 0 1 1289 1953)">Exporting</text>
  <text style="stroke:none;fill:black;font-family:sans-serif;font-size:13;" transform="matrix(1 0 0 1 1289 1971)">Symbols should be outlined when exporting to ensure the</text>
  <text style="stroke:none;fill:black;font-family:sans-serif;font-size:13;" transform="matrix(1 0 0 1 1289 1989)">design is preserved when submitting to Xcode.</text>
  <text id="template-version" style="stroke:none;fill:black;font-family:sans-serif;font-size:13;text-anchor:end;" transform="matrix(1 0 0 1 3036 1933)">Template v.5.0</text>
  <text style="stroke:none;fill:black;font-family:sans-serif;font-size:13;text-anchor:end;" transform="matrix(1 0 0 1 3036 1951)">Requires Xcode 15 or greater</text>
  <text id="descriptive-name" style="stroke:none;fill:black;font-family:sans-serif;font-size:13;text-anchor:end;" transform="matrix(1 0 0 1 3036 1969)">Generated from rectangle</text>
  <text style="stroke:none;fill:black;font-family:sans-serif;font-size:13;text-anchor:end;" transform="matrix(1 0 0 1 3036 1987)">Typeset at 100.0 points</text>
  <text style="stroke:none;fill:black;font-family:sans-serif;font-size:13;" transform="matrix(1 0 0 1 263 726)">Small</text>
  <text style="stroke:none;fill:black;font-family:sans-serif;font-size:13;" transform="matrix(1 0 0 1 263 1156)">Medium</text>
  <text style="stroke:none;fill:black;font-family:sans-serif;font-size:13;" transform="matrix(1 0 0 1 263 1586)">Large</text>
 </g>
 <g id="Guides">
  <g id="H-reference" style="fill:#27AAE1;stroke:none;" transform="matrix(1 0 0 1 339 696)">
   <path d="M0.993654 0L3.63775 0L29.3281-67.1323L30.0303-67.1323L30.0303-70.459L28.1226-70.459ZM11.6885-24.4799L46.9815-24.4799L46.2315-26.7285L12.4385-26.7285ZM55.1196 0L57.7637 0L30.6382-70.459L29.4326-70.459L29.4326-67.1323Z"/>
  </g>
  <line id="Baseline-S" style="fill:none;stroke:#27AAE1;opacity:1;stroke-width:0.5;" x1="263" x2="3036" y1="696" y2="696"/>
  <line id="Capline-S" style="fill:none;stroke:#27AAE1;opacity:1;stroke-width:0.5;" x1="263" x2="3036" y1="625.541" y2="625.541"/>
  <g id="H-reference" style="fill:#27AAE1;stroke:none;" transform="matrix(1 0 0 1 339 1126)">
   <path d="M0.993654 0L3.63775 0L29.3281-67.1323L30.0303-67.1323L30.0303-70.459L28.1226-70.459ZM11.6885-24.4799L46.9815-24.4799L46.2315-26.7285L12.4385-26.7285ZM55.1196 0L57.7637 0L30.6382-70.459L29.4326-70.459L29.4326-67.1323Z"/>
  </g>
  <line id="Baseline-M" style="fill:none;stroke:#27AAE1;opacity:1;stroke-width:0.5;" x1="263" x2="3036" y1="1126" y2="1126"/>
  <line id="Capline-M" style="fill:none;stroke:#27AAE1;opacity:1;stroke-width:0.5;" x1="263" x2="3036" y1="1055.54" y2="1055.54"/>
  <g id="H-reference" style="fill:#27AAE1;stroke:none;" transform="matrix(1 0 0 1 339 1556)">
   <path d="M0.993654 0L3.63775 0L29.3281-67.1323L30.0303-67.1323L30.0303-70.459L28.1226-70.459ZM11.6885-24.4799L46.9815-24.4799L46.2315-26.7285L12.4385-26.7285ZM55.1196 0L57.7637 0L30.6382-70.459L29.4326-70.459L29.4326-67.1323Z"/>
  </g>
  <line id="Baseline-L" style="fill:none;stroke:#27AAE1;opacity:1;stroke-width:0.5;" x1="263" x2="3036" y1="1556" y2="1556"/>
  <line id="Capline-L" style="fill:none;stroke:#27AAE1;opacity:1;stroke-width:0.5;" x1="263" x2="3036" y1="1485.54" y2="1485.54"/>
  <line id="left-margin-Ultralight-S" style="fill:none;stroke:#00AEEF;stroke-width:0.5;opacity:1.0;" x1="505.702" x2="505.702" y1="600.785" y2="720.121"/>
  <line id="right-margin-Ultralight-S" style="fill:none;stroke:#00AEEF;stroke-width:0.5;opacity:1.0;" x1="613.72" x2="613.72" y1="600.785" y2="720.121"/>
  <line id="left-margin-Regular-S" style="fill:none;stroke:#00AEEF;stroke-width:0.5;opacity:1.0;" x1="1394.79" x2="1394.79" y1="600.785" y2="720.121"/>
  <line id="right-margin-Regular-S" style="fill:none;stroke:#00AEEF;stroke-width:0.5;opacity:1.0;" x1="1504.9" x2="1504.9" y1="600.785" y2="720.121"/>
  <line id="left-margin-Black-S" style="fill:none;stroke:#00AEEF;stroke-width:0.5;opacity:1.0;" x1="2877.35" x2="2877.35" y1="600.785" y2="720.121"/>
  <line id="right-margin-Black-S" style="fill:none;stroke:#00AEEF;stroke-width:0.5;opacity:1.0;" x1="2989.45" x2="2989.45" y1="600.785" y2="720.121"/>
 </g>
 <g id="Symbols">
  <g id="Black-S" transform="matrix(1 0 0 1 2877.35 696)">
   <path class="monochrome-0 multicolor-0:tintColor hierarchical-0:secondary SFSymbolsPreviewWireframe" d="M25 2.92969L87.1094 2.92969C96.6797 2.92969 102.344-2.73438 102.344-12.3047L102.344-58.1055C102.344-67.6758 96.6797-73.3398 87.1094-73.3398L25-73.3398C15.4297-73.3398 9.76562-67.6758 9.76562-58.1055L9.76562-12.3047C9.76562-2.73438 15.4297 2.92969 25 2.92969ZM27.2461-11.2305C25-11.2305 23.9258-12.1094 23.9258-14.5508L23.9258-55.8594C23.9258-58.3008 25-59.1797 27.2461-59.1797L84.8633-59.1797C87.1094-59.1797 88.1836-58.3008 88.1836-55.8594L88.1836-14.5508C88.1836-12.1094 87.1094-11.2305 84.8633-11.2305Z"/>
   <path class="monochrome-1 multicolor-1:tintColor hierarchical-1:primary SFSymbolsPreviewWireframe" d="M82.8534-19.8333C87.5492-19.8333 91.6291-21.8826 93.1762-24.8599C93.5999-25.684 93.7339-26.3606 93.7339-26.9548C93.7339-28.9851 92.1134-30.3089 90.088-30.3089C88.1474-30.3089 87.2301-29.4772 86.1688-27.9187C85.3309-26.9379 84.4364-26.0422 83.0254-26.0422C80.9814-26.0422 79.6964-28.0229 79.6964-31.7408C79.6964-35.4008 80.9968-37.3815 83.0941-37.3815C84.2824-37.3815 85.2013-36.7127 86.2398-35.0726C87.0426-33.8019 88.0448-33.0874 89.8454-33.0874C91.8663-33.0874 93.6044-34.2436 93.6044-36.2694C93.6044-36.8986 93.4124-37.6619 93.0728-38.326C91.6536-41.5911 87.7854-43.5919 82.811-43.5919C75.3813-43.5919 70.8735-39.0535 70.8735-31.7483C70.8735-24.297 75.3708-19.8333 82.8534-19.8333Z"/>
   <path class="monochrome-2 multicolor-2:tintColor hierarchical-2:primary SFSymbolsPreviewWireframe" d="M48.3147-19.8273C51.1124-19.8273 52.6889-21.352 52.6889-24.0784L52.6889-23.7509L52.8565-23.7509C53.9627-21.2845 56.0929-19.8333 59.3178-19.8333C65.2437-19.8333 68.4215-24.028 68.4215-31.4775C68.4215-38.9892 65.2163-43.158 59.257-43.158C56.3563-43.158 54.022-41.684 52.9053-39.1188L52.7118-39.1188L52.7118-46.1857C52.7118-48.7659 50.9588-50.4871 48.3711-50.4871C45.7529-50.4871 44.0257-48.7659 44.0257-46.2146L44.0257-24.0784C44.0257-21.3535 45.5504-19.8273 48.3147-19.8273ZM56.111-26.2735C54.107-26.2735 52.6709-28.2776 52.6709-31.4835C52.6709-34.6878 54.104-36.7437 56.111-36.7437C58.1134-36.7437 59.5402-34.6973 59.5402-31.4775C59.5402-28.3185 58.1454-26.2735 56.111-26.2735Z"/>
   <path class="monochrome-3 multicolor-3:tintColor hierarchical-3:primary SFSymbolsPreviewWireframe" d="M26.226-19.8273C28.7683-19.8273 31.2216-20.9946 32.4495-23.1839L32.6171-23.1839L32.6171-23.3887C32.8484-20.9745 34.3717-19.8288 36.8238-19.8288C39.4115-19.8288 41.0808-21.177 41.0808-24.019L41.0808-35.7696C41.0808-40.2944 36.9352-43.4183 30.4897-43.4183C24.9292-43.4183 21.0333-41.7323 20.0857-38.9461C19.9102-38.4992 19.8764-38.148 19.8764-37.6296C19.8764-35.8701 21.1972-34.5967 23.3905-34.5967C24.8528-34.5967 25.9312-35.1102 26.9165-36.0534C28.4209-37.3217 29.0559-37.5521 30.0648-37.5521C31.4446-37.5521 32.5667-36.7845 32.5667-35.2699L32.5667-34.0981L27.8972-33.8323C21.7071-33.4814 18.3751-31.0971 18.3751-26.8054C18.3751-22.6643 21.8021-19.8273 26.226-19.8273ZM29.174-25.4682C27.9324-25.4682 26.9699-26.1573 26.9699-27.3703C26.9699-28.4932 27.8968-29.2368 29.2085-29.3302L32.5667-29.5582L32.5667-28.2548C32.5667-26.5677 31.0964-25.4682 29.174-25.4682Z"/>
  </g>
  <g id="Regular-S" transform="matrix(1 0 0 1 1394.79 696)">
   <path class="monochrome-0 multicolor-0:tintColor hierarchical-0:secondary SFSymbolsPreviewWireframe" d="M22.2168 0.390625L87.8906 0.390625C96.2402 0.390625 100.342-3.71094 100.342-11.9141L100.342-58.4961C100.342-66.6992 96.2402-70.8008 87.8906-70.8008L22.2168-70.8008C13.916-70.8008 9.76562-66.6992 9.76562-58.4961L9.76562-11.9141C9.76562-3.71094 13.916 0.390625 22.2168 0.390625ZM22.3145-6.68945C18.7988-6.68945 16.7969-8.59375 16.7969-12.2559L16.7969-58.1543C16.7969-61.8652 18.7988-63.7207 22.3145-63.7207L87.793-63.7207C91.3086-63.7207 93.3105-61.8652 93.3105-58.1543L93.3105-12.2559C93.3105-8.59375 91.3086-6.68945 87.793-6.68945Z"/>
   <path class="monochrome-1 multicolor-1:tintColor hierarchical-1:primary SFSymbolsPreviewWireframe" d="M78.8599-20.5722C83.0281-20.5722 86.6419-22.6369 87.9304-25.523C88.1804-26.0841 88.2796-26.5536 88.2796-26.9744C88.2796-28.3754 87.1948-29.3202 85.8109-29.3202C84.5068-29.3202 83.8764-28.7991 83.1266-27.5676C82.1783-26.0418 80.9429-25.0682 78.9463-25.0682C76.0832-25.0682 74.1927-27.5313 74.1927-31.7227C74.1927-35.8606 76.0733-38.3825 78.9911-38.3825C80.8071-38.3825 82.0962-37.5182 83.1435-35.6578C83.7701-34.5909 84.4507-34.1045 85.6818-34.1045C87.078-34.1045 88.1976-34.9503 88.1976-36.3636C88.1976-36.7703 88.0743-37.2762 87.8885-37.7277C86.7252-40.749 83.2012-42.8646 78.8143-42.8646C72.3474-42.8646 68.2377-38.5206 68.2377-31.7121C68.2377-24.8274 72.3562-20.5722 78.8599-20.5722Z"/>
   <path class="monochrome-2 multicolor-2:tintColor hierarchical-2:primary SFSymbolsPreviewWireframe" d="M47.5192-20.5689C49.314-20.5689 50.4375-21.642 50.4375-23.4494L50.4375-24.4757L50.5365-24.4757C51.7717-22.0452 54.0288-20.5722 57.1427-20.5722C62.6953-20.5722 66.0114-24.7248 66.0114-31.612C66.0114-38.5405 62.6692-42.6827 57.1463-42.6827C54.228-42.6827 51.8409-41.2008 50.6442-38.7273L50.5053-38.7273L50.5053-46.8551C50.5053-48.6453 49.3368-49.8294 47.5868-49.8294C45.8385-49.8294 44.6806-48.6453 44.6806-46.8672L44.6806-23.4494C44.6806-21.6281 45.7242-20.5689 47.5192-20.5689ZM55.29-25.1653C52.4821-25.1653 50.4867-27.6781 50.4867-31.6152C50.4867-35.5662 52.4805-38.1001 55.29-38.1001C58.1707-38.1001 60.0321-35.612 60.0321-31.612C60.0321-27.6378 58.1845-25.1653 55.29-25.1653Z"/>
   <path class="monochrome-3 multicolor-3:tintColor hierarchical-3:primary SFSymbolsPreviewWireframe" d="M29.1095-20.5689C31.7801-20.5689 34.3465-21.9305 35.5745-24.216L35.6735-24.216L35.6735-23.1166C35.7706-21.4687 36.8575-20.555 38.4929-20.555C40.2135-20.555 41.3472-21.5537 41.3472-23.4391L41.3472-35.644C41.3472-39.9366 37.7861-42.7918 32.2261-42.7918C27.8426-42.7918 24.4292-41.2095 23.3765-38.6896C23.159-38.2313 23.0594-37.8144 23.0594-37.3393C23.0594-36.0384 24.032-35.1285 25.5149-35.1285C26.5171-35.1285 27.2725-35.4867 27.8885-36.2272C29.1791-37.9063 30.2977-38.4831 31.9901-38.4831C34.1542-38.4831 35.5797-37.3102 35.5797-35.2604L35.5797-33.8523L30.2407-33.5739C24.8202-33.2862 21.8293-30.9646 21.8293-27.0912C21.8293-23.1933 24.8982-20.5689 29.1095-20.5689ZM30.898-24.725C28.9866-24.725 27.6888-25.7551 27.6888-27.3707C27.6888-28.9073 28.9484-29.9486 31.0498-30.07L35.5797-30.3608L35.5797-28.8316C35.5797-26.4481 33.5321-24.725 30.898-24.725Z"/>
  </g>
  <g id="Ultralight-S" transform="matrix(1 0 0 1 505.702 696)">
   <path class="monochrome-0 multicolor-0:tintColor hierarchical-0:secondary SFSymbolsPreviewWireframe" d="M19.7647-1.65282L88.2539-1.65282C94.7871-1.65282 98.2529-5.20946 98.2529-11.6416L98.2529-58.8594C98.2529-65.2915 94.7871-68.8482 88.2539-68.8482L19.7647-68.8482C13.2349-68.8482 9.76562-65.3823 9.76562-58.8594L9.76562-11.6416C9.76562-5.11864 13.2349-1.65282 19.7647-1.65282ZM19.8623-3.87405C14.6665-3.87405 11.9834-6.55031 11.9834-11.7564L11.9834-58.7446C11.9834-63.9541 14.6665-66.6269 19.8623-66.6269L88.1562-66.6269C93.1704-66.6269 96.0351-63.9541 96.0351-58.7446L96.0351-11.7564C96.0351-6.55031 93.1704-3.87405 88.1562-3.87405Z"/>
   <path class="monochrome-1 multicolor-1:tintColor hierarchical-1:primary SFSymbolsPreviewWireframe" d="M74.7816-21.106C78.494-21.106 81.6359-23.1668 82.6625-26.2722C82.7271-26.5233 82.786-26.7831 82.786-27.0185C82.786-27.5146 82.4334-27.9003 81.9184-27.9003C81.4195-27.9003 81.1915-27.6937 80.952-27.1489C79.9986-24.4186 77.7367-22.9083 74.7917-22.9083C70.4658-22.9083 67.7624-26.2152 67.7624-31.5146C67.7624-36.8083 70.5277-40.1265 74.7439-40.1265C77.629-40.1265 79.9211-38.6406 80.8846-35.8703C81.1137-35.3411 81.3519-35.1245 81.8263-35.1245C82.3658-35.1245 82.7082-35.4758 82.7082-35.9963C82.7082-36.1972 82.6494-36.4571 82.6048-36.6349C81.6717-39.7504 78.4864-41.9189 74.7041-41.9189C69.1726-41.9189 65.6661-37.8204 65.6661-31.4758C65.6661-25.1356 69.2257-21.106 74.7816-21.106Z"/>
   <path class="monochrome-2 multicolor-2:tintColor hierarchical-2:primary SFSymbolsPreviewWireframe" d="M46.3821-21.1347C46.957-21.1347 47.3929-21.5362 47.3929-22.1844L47.3929-26.4857L47.4274-26.4857C48.5155-23.1953 51.3297-21.106 54.7988-21.106C59.8564-21.106 63.3175-25.3183 63.3175-31.529C63.3175-37.7209 59.8464-41.9189 54.8189-41.9189C51.3323-41.9189 48.5168-39.8008 47.4875-36.5679L47.433-36.5679L47.433-48.2245C47.433-48.8884 47.0172-49.3242 46.3978-49.3242C45.7884-49.3242 45.387-48.8884 45.387-48.2245L45.387-22.1844C45.387-21.5262 45.7828-21.1347 46.3821-21.1347ZM54.4048-22.9083C50.3105-22.9083 47.4906-26.3892 47.4906-31.5002C47.4906-36.6212 50.3249-40.1309 54.4048-40.1309C58.5205-40.1309 61.2214-36.7232 61.2214-31.529C61.2214-26.3203 58.5061-22.9083 54.4048-22.9083Z"/>
   <path class="monochrome-3 multicolor-3:tintColor hierarchical-3:primary SFSymbolsPreviewWireframe" d="M31.9214-21.1347C35.1651-21.1347 38.1285-22.9218 39.1765-25.5922L39.2109-25.5922L39.2109-22.1543C39.2109-21.5405 39.6224-21.1247 40.1873-21.1247C40.801-21.1247 41.2025-21.5405 41.2025-22.1944L41.2025-35.1029C41.2025-39.2577 38.3941-41.9189 33.789-41.9189C30.0907-41.9189 27.3412-40.2613 26.3476-37.5434C26.1898-37.1371 26.0577-36.6876 26.0577-36.3489C26.0577-35.7996 26.4635-35.4527 27.0127-35.4527C27.4273-35.4527 27.7241-35.6537 27.8932-36.0525C28.7141-38.6589 30.6926-40.1465 33.7345-40.1465C37.1409-40.1465 39.1608-38.1104 39.1608-34.9683L39.1608-33.1943L32.4524-32.7718C27.7379-32.4845 25.2338-30.3435 25.2338-26.9373C25.2338-23.4854 27.9838-21.1347 31.9214-21.1347ZM32.3167-22.8669C29.3961-22.8669 27.3155-24.5638 27.3155-27.0106C27.3155-29.3265 29.1458-30.8983 32.7336-31.1599L39.1608-31.6312L39.1608-28.948C39.1608-25.6111 36.0806-22.8669 32.3167-22.8669Z"/>
  </g>
 </g>
</svg>
